<?xml version="1.0" encoding="UTF-8" standalone="no"?>
<svg
   xmlns:dc="http://purl.org/dc/elements/1.1/"
   xmlns:cc="http://creativecommons.org/ns#"
   xmlns:rdf="http://www.w3.org/1999/02/22-rdf-syntax-ns#"
   xmlns:svg="http://www.w3.org/2000/svg"
   xmlns="http://www.w3.org/2000/svg"
   xmlns:sodipodi="http://sodipodi.sourceforge.net/DTD/sodipodi-0.dtd"
   xmlns:inkscape="http://www.inkscape.org/namespaces/inkscape"
   width="48"
   height="48"
   viewBox="0 0 48 48"
   fill="none"
   version="1.1"
   id="svg4"
   sodipodi:docname="egs.svg"
   inkscape:version="1.0.2 (e86c870879, 2021-01-15)">
  <metadata
     id="metadata10">
    <rdf:RDF>
      <cc:Work
         rdf:about="">
        <dc:format>image/svg+xml</dc:format>
        <dc:type
           rdf:resource="http://purl.org/dc/dcmitype/StillImage" />
        <dc:title></dc:title>
      </cc:Work>
    </rdf:RDF>
  </metadata>
  <defs
     id="defs8" />
  <sodipodi:namedview
     pagecolor="#ffffff"
     bordercolor="#666666"
     borderopacity="1"
     objecttolerance="10"
     gridtolerance="10"
     guidetolerance="10"
     inkscape:pageopacity="0"
     inkscape:pageshadow="2"
     inkscape:window-width="2415"
     inkscape:window-height="1208"
     id="namedview6"
     showgrid="false"
     inkscape:zoom="14.849242"
     inkscape:cx="18.220735"
     inkscape:cy="18.73744"
     inkscape:window-x="1378"
     inkscape:window-y="126"
     inkscape:window-maximized="0"
     inkscape:current-layer="svg4" />
  <path
     fill-rule="evenodd"
     clip-rule="evenodd"
     d="M 6.9174269,0.22828389 H 40.447303 c 2.717703,0 3.720769,1.00297811 3.720769,3.72196731 V 36.759072 c 0,0.307647 -0.01249,0.593501 -0.03972,0.858259 -0.0051,0.04952 -0.0099,0.09885 -0.01477,0.148077 -0.05279,0.541896 -0.104795,1.075076 -0.610735,1.675313 -0.05378,0.06419 -0.617371,0.483556 -0.617371,0.483556 -0.05477,0.02685 -0.106377,0.0524 -0.156201,0.07706 -0.226128,0.112024 -0.415607,0.205922 -0.695818,0.318639 L 25.522915,47.23735 c -0.857169,0.392928 -1.215625,0.546057 -1.838147,0.533675 v 10e-5 h -0.0025 -0.0025 v -10e-5 c -0.622516,0.01238 -0.980973,-0.140743 -1.838043,-0.53367 L 5.3312491,40.319977 C 5.0507429,40.207061 4.8610545,40.113064 4.6345597,40.000841 c -0.049554,-0.02447 -0.1008704,-0.04992 -0.155279,-0.07656 0,0 -0.5635381,-0.419371 -0.6174702,-0.483556 -0.5059612,-0.600237 -0.5579223,-1.133415 -0.6107252,-1.675312 -0.00481,-0.04922 -0.00961,-0.09856 -0.014768,-0.148077 -0.027178,-0.264758 -0.039589,-0.550613 -0.039589,-0.85826 V 3.9502512 c 0,-2.7189892 1.0029783,-3.72196731 3.7206986,-3.72196731 z"
     fill="#000000"
     id="path12"
     style="fill:#ffffff;stroke-width:0.990488"
     sodipodi:nodetypes="sssscccccccccccccccccccsss" />
  <path
     fill-rule="evenodd"
     clip-rule="evenodd"
     d="m 8.50698,2.4821737 h 30.350777 c 2.460026,0 3.367988,0.9078819 3.367988,3.3690729 V 35.549334 c 0,0.278477 -0.0113,0.537229 -0.03595,0.776884 -0.0047,0.04483 -0.009,0.08948 -0.01336,0.134038 -0.04779,0.490517 -0.09486,0.973143 -0.552829,1.516469 -0.04868,0.0581 -0.558836,0.437708 -0.558836,0.437708 -0.04958,0.0243 -0.09629,0.04743 -0.14139,0.06975 -0.204688,0.101402 -0.376203,0.186398 -0.629845,0.288428 l -14.945116,6.261508 c -0.775897,0.355672 -1.100368,0.494283 -1.663866,0.483075 v 9e-5 h -0.0022 -0.0022 v -9e-5 C 23.11666,45.528406 22.79219,45.389795 22.016382,45.034123 L 7.071194,38.772615 C 6.8172837,38.670405 6.6455804,38.58532 6.4405604,38.483738 c -0.044856,-0.02215 -0.091307,-0.04519 -0.1405563,-0.0693 0,0 -0.5101069,-0.37961 -0.5589255,-0.437708 -0.457989,-0.543326 -0.5050234,-1.025952 -0.5528199,-1.516469 -0.00435,-0.04456 -0.0087,-0.08921 -0.013368,-0.134038 -0.024602,-0.239655 -0.035836,-0.498407 -0.035836,-0.776884 V 5.8512466 c 0,-2.461191 0.907882,-3.3690729 3.3679253,-3.3690729 z M 34.291137,17.936456 v 3.724467 c 0,0.660059 -0.305105,0.966329 -0.938178,0.966329 h -0.469447 c -0.656652,0 -0.961757,-0.30627 -0.961757,-0.966329 V 11.241749 c 0,-0.660023 0.305105,-0.966267 0.961757,-0.966267 h 0.422377 c 0.633431,0 0.938446,0.306244 0.938446,0.966267 v 3.229709 h 2.462895 v -3.371144 c 0,-2.050568 -0.985248,-3.040666 -3.025765,-3.040666 h -1.220151 c -2.040517,0 -3.049613,1.0134717 -3.049613,3.064425 v 10.65457 c 0,2.051007 1.009096,3.064407 3.049613,3.064407 h 1.243462 c 2.041055,0 3.049524,-1.0134 3.049524,-3.064407 v -3.842187 z m -21.170672,-0.49509 h 2.955652 v -2.286269 h -2.955652 v -4.667521 h 3.073373 V 8.2012891 H 10.6105 V 24.70175 h 5.630049 V 22.415391 H 13.120465 Z M 28.085127,24.70175 H 25.574713 V 8.2012622 h 2.510414 z m -6.152575,-9.169642 c 0,0.660059 -0.304566,0.966688 -0.937997,0.966688 h -1.032408 v -6.081798 h 1.032408 c 0.633431,0 0.937997,0.306324 0.937997,0.966258 z M 21.393083,8.2011546 H 17.452182 V 24.70166 h 2.509965 v -5.987514 h 1.430936 c 2.040965,0 3.049524,-1.0134 3.049524,-3.063959 v -4.384598 c 0,-2.0509537 -1.008559,-3.0644344 -3.049524,-3.0644344 z m 15.424964,24.2071154 0.0069,-0.06859 0.0068,-0.07531 v -0.0754 -0.01372 -0.07531 l -0.0068,-0.07531 -0.0069,-0.0685 -0.01363,-0.0685 -0.01372,-0.06859 -0.01372,-0.0616 -0.02017,-0.06168 -0.02053,-0.0616 -0.02735,-0.05478 -0.03434,-0.06177 -0.0338,-0.05478 -0.04115,-0.06159 -0.0407,-0.05478 -0.04788,-0.04797 -0.04752,-0.05487 -0.05478,-0.04788 -0.05442,-0.04797 -0.05451,-0.03425 -0.05478,-0.04115 -0.05433,-0.03416 -0.06124,-0.03425 -0.06168,-0.03434 -0.06814,-0.03425 -0.06805,-0.02735 -0.06814,-0.03425 -0.07531,-0.02699 -0.06124,-0.02053 -0.06124,-0.02062 -0.06859,-0.02053 -0.06115,-0.02053 -0.06814,-0.02053 -0.06814,-0.02062 -0.0685,-0.01363 -0.07495,-0.02053 -0.06814,-0.02062 -0.07486,-0.01363 -0.07495,-0.02062 -0.07495,-0.02053 -0.0754,-0.02053 -0.06805,-0.01372 -0.06124,-0.02062 -0.06168,-0.01363 -0.05433,-0.02053 -0.05442,-0.01372 -0.08186,-0.02735 -0.07531,-0.02744 -0.06814,-0.02743 -0.05433,-0.03425 -0.06168,-0.03425 -0.04752,-0.04797 -0.02743,-0.04106 -0.0338,-0.0754 -0.0069,-0.08894 v -0.01381 l 0.0069,-0.06841 0.0269,-0.06169 0.04115,-0.06168 0.06124,-0.05487 0.04797,-0.02735 0.05442,-0.02744 0.06124,-0.01363 0.0685,-0.01381 0.07495,-0.01363 h 0.08177 0.06814 l 0.06124,0.0068 0.0685,0.0068 0.06814,0.0069 0.06805,0.01372 0.06805,0.01372 0.06859,0.01372 0.06805,0.02053 0.06805,0.02062 0.07504,0.02044 0.05478,0.02744 0.06124,0.02053 0.05442,0.02735 0.06168,0.02744 0.05433,0.02744 0.06124,0.02735 0.05487,0.03434 0.06124,0.02735 0.05478,0.04115 0.05442,0.03416 0.06124,0.03434 0.05478,0.04106 0.0407,-0.05478 0.03425,-0.05478 0.04062,-0.05478 0.04124,-0.05478 0.04062,-0.06169 0.03434,-0.05478 0.04097,-0.05478 0.04079,-0.05487 0.03416,-0.05478 0.0408,-0.05478 0.04106,-0.05487 0.03434,-0.05478 0.04061,-0.0616 0.04115,-0.05487 0.0407,-0.05478 0.03425,-0.05478 0.04062,-0.05487 -0.05433,-0.04106 -0.05442,-0.04106 -0.05478,-0.04115 -0.05442,-0.03416 -0.06159,-0.04115 -0.05442,-0.03425 -0.06133,-0.03425 -0.06159,-0.03425 -0.05442,-0.02744 -0.06133,-0.03425 -0.06841,-0.02744 -0.06133,-0.02744 -0.06115,-0.02735 -0.06133,-0.02053 -0.06841,-0.02735 -0.06133,-0.01381 -0.06124,-0.02053 -0.0685,-0.02053 -0.06124,-0.01372 -0.06814,-0.01372 -0.06805,-0.01372 -0.06169,-0.01363 -0.06814,-0.01372 -0.07495,-0.0068 -0.06805,-0.01372 -0.0754,-0.0069 h -0.06805 l -0.07495,-0.0068 -0.07495,-0.0068 h -0.07486 -0.07504 -0.07531 -0.06814 l -0.06805,0.0068 -0.06805,0.0068 -0.06859,0.0069 -0.06805,0.0068 -0.06133,0.01372 -0.06805,0.01372 -0.0616,0.01363 -0.06133,0.01372 -0.05442,0.01372 -0.06168,0.02062 -0.06805,0.02735 -0.06805,0.02062 -0.06169,0.02735 -0.06124,0.03425 -0.06124,0.02743 -0.06169,0.03416 -0.05433,0.03425 -0.05451,0.04115 -0.05478,0.04106 -0.04752,0.03425 -0.05478,0.04797 -0.04761,0.05487 -0.04788,0.04797 -0.04752,0.05478 -0.04115,0.05478 -0.04079,0.05478 -0.03416,0.0616 -0.03389,0.06177 -0.02735,0.0616 -0.02744,0.06168 -0.02699,0.0616 -0.01363,0.0616 -0.02062,0.06177 -0.01372,0.06168 -0.01372,0.06151 -0.0068,0.06859 -0.0068,0.06169 -0.0069,0.06841 v 0.06859 0.01363 0.0754 l 0.0069,0.07531 0.0068,0.0685 0.0068,0.0685 0.01372,0.06168 0.01372,0.0685 0.02062,0.05478 0.02008,0.06169 0.02053,0.05487 0.02744,0.04752 0.03425,0.06159 0.0338,0.05487 0.03434,0.04788 0.04062,0.04788 0.04115,0.04806 0.04761,0.04797 0.04788,0.04788 0.04752,0.04115 0.05478,0.03425 0.05442,0.04115 0.06124,0.03416 0.05487,0.03425 0.06814,0.03425 0.06115,0.03425 0.0685,0.02744 0.06814,0.02735 0.06805,0.02744 0.07495,0.02744 0.06168,0.02053 0.06124,0.02053 0.06133,0.02062 0.06805,0.01372 0.0616,0.02044 0.06823,0.02062 0.06796,0.01372 0.0685,0.02053 0.06814,0.01372 0.07495,0.02053 0.06814,0.01372 0.07486,0.02053 0.06859,0.01363 0.06805,0.02062 0.06124,0.01363 0.06168,0.02062 0.05433,0.01372 0.04761,0.01372 0.08177,0.03416 0.0685,0.02744 0.06124,0.02744 0.05442,0.02735 0.05487,0.04115 0.04752,0.04106 0.03425,0.04797 0.02743,0.0685 0.0067,0.08222 v 0.01363 l -0.0067,0.06859 -0.02062,0.06159 -0.02744,0.05487 -0.04061,0.04797 -0.05478,0.04106 -0.04761,0.02744 -0.05478,0.02053 -0.06133,0.01363 -0.06115,0.01381 -0.06859,0.01363 -0.07495,0.0068 h -0.08177 -0.06814 l -0.07486,-0.0068 h -0.06814 l -0.0685,-0.01363 -0.07495,-0.0069 -0.06805,-0.01372 -0.06805,-0.01363 -0.06859,-0.01372 -0.06115,-0.02062 -0.06823,-0.02053 -0.06805,-0.02053 -0.0616,-0.02735 -0.06133,-0.02062 -0.06124,-0.02744 -0.06168,-0.02735 -0.06124,-0.02744 -0.05433,-0.03425 -0.06177,-0.02735 -0.05424,-0.03434 -0.06133,-0.04106 -0.05478,-0.03416 -0.06124,-0.04115 -0.05487,-0.04106 -0.06124,-0.04115 -0.05442,-0.04106 -0.04106,0.05478 -0.04752,0.04788 -0.04115,0.05487 -0.04752,0.05478 -0.04106,0.04788 -0.04079,0.05487 -0.04788,0.05478 -0.0407,0.04797 -0.04797,0.05478 -0.04071,0.04797 -0.04797,0.05487 -0.04062,0.05478 -0.04115,0.04788 -0.04761,0.05478 -0.04106,0.05487 -0.04752,0.04797 -0.04115,0.05478 0.05442,0.04797 0.04788,0.04106 0.05451,0.04115 0.05478,0.04106 0.05442,0.04115 0.05433,0.04106 0.05478,0.03425 0.05442,0.03425 0.06168,0.03425 0.05442,0.03416 0.06124,0.03434 0.06159,0.02744 0.06133,0.0338 0.06124,0.02743 0.06159,0.02735 0.06814,0.02744 0.06133,0.02053 0.06805,0.02053 0.06159,0.02744 0.06814,0.02053 0.06805,0.02053 0.06133,0.01381 0.06841,0.02044 0.06814,0.01372 0.06805,0.01372 0.06814,0.01372 0.06859,0.01363 0.06805,0.0069 0.06805,0.01372 0.07504,0.0068 0.06841,0.0069 0.06814,0.0069 h 0.07486 l 0.06823,0.0068 h 0.06805 0.07531 0.07495 0.06814 l 0.06814,-0.0068 0.07486,-0.0069 0.0685,-0.0069 0.06124,-0.0068 0.06814,-0.0068 0.06859,-0.01381 0.06115,-0.01363 0.06133,-0.01372 0.06805,-0.01372 0.06168,-0.02053 0.06805,-0.02062 0.06814,-0.02044 0.06805,-0.02744 0.0685,-0.02744 0.06124,-0.03425 0.06124,-0.02744 0.06169,-0.03416 0.05442,-0.04115 0.05442,-0.0338 0.05478,-0.04106 0.04761,-0.04115 0.05469,-0.04797 0.0407,-0.04106 0.04797,-0.04806 0.04071,-0.04788 0.03425,-0.05478 0.04079,-0.05478 0.03416,-0.05487 0.03425,-0.05478 0.02699,-0.06159 0.02743,-0.05487 0.02735,-0.06159 0.02062,-0.06859 0.01327,-0.06169 0.02053,-0.06841 0.01372,-0.06859 z m -4.844291,1.301111 h 0.0685 0.06814 v -0.0685 -0.06178 -0.06841 -0.0685 -0.06805 -0.06177 -0.06841 -0.0685 -0.06177 -0.06841 -0.0685 -0.06159 -0.06859 -0.0685 -0.0685 -0.06168 -0.0685 h -0.06814 -0.0685 -0.06805 -0.06814 -0.06805 -0.0685 -0.06814 -0.06805 -0.06814 -0.07531 -0.06814 -0.06805 -0.06805 -0.06868 -0.06796 -0.06814 -0.06814 -0.0685 -0.06814 -0.06805 -0.06805 -0.06814 -0.0685 -0.06805 -0.06814 -0.06814 -0.0685 -0.06814 -0.06805 -0.07495 -0.0685 -0.06814 -0.06805 -0.06805 -0.0685 -0.06814 -0.06805 -0.06823 -0.06841 v -0.0685 -0.07531 -0.0685 -0.0685 -0.07531 -0.0685 -0.0685 -0.0754 -0.0685 -0.0685 -0.0754 -0.06841 h 0.06841 0.06823 0.06805 0.06814 0.0685 0.06805 0.06805 0.06814 0.06169 0.06814 0.06805 0.06805 0.06859 0.06805 0.06814 0.06805 0.0685 0.06805 0.06823 0.06805 0.0685 0.06805 0.06814 0.06814 0.0685 0.06805 0.06133 0.06805 0.0685 0.06814 0.06805 0.06805 0.0685 0.06814 0.06814 v -0.0685 -0.06177 -0.0685 -0.0685 -0.06159 -0.0685 -0.0685 -0.0685 -0.06168 -0.0685 -0.0685 -0.06168 -0.06841 -0.06814 -0.06168 -0.0685 h -0.06814 -0.06814 -0.0685 -0.06805 -0.06805 -0.06814 -0.0685 -0.06805 -0.06133 -0.06805 -0.0685 -0.06814 -0.06814 -0.06805 -0.0685 -0.06805 -0.06823 -0.06805 -0.0685 -0.06805 -0.06814 -0.06805 -0.06859 -0.06805 -0.06805 -0.06814 -0.06169 -0.06814 -0.06805 -0.06805 -0.0685 -0.06814 -0.06805 -0.06823 -0.06841 v -0.0685 -0.0685 -0.0685 -0.0685 -0.0685 -0.0685 -0.06169 -0.0685 -0.0685 -0.0685 -0.0685 -0.06841 h 0.06841 0.06823 0.06805 0.06814 0.0685 0.06805 0.06124 0.06814 0.0685 0.06814 0.06805 0.06805 0.06859 0.06805 0.06814 0.06805 0.0685 0.06805 0.06823 0.06115 0.06859 0.06805 0.06805 0.06814 0.0685 0.06805 0.06823 0.06805 0.0685 0.06814 0.06805 0.06805 0.06168 0.06805 0.06814 0.06814 0.0685 0.06814 0.06805 v -0.06859 -0.0616 -0.06859 -0.06841 -0.0685 -0.06177 -0.06841 -0.06859 -0.06159 -0.0685 -0.0685 -0.06168 -0.0685 -0.0685 -0.0685 -0.06168 -0.0685 h -0.06805 -0.06814 -0.0685 -0.06814 -0.06814 -0.06805 -0.0685 -0.06814 -0.06805 -0.06805 -0.0685 -0.06814 -0.06805 -0.06814 -0.06169 -0.06814 -0.06805 -0.06805 -0.06859 -0.06805 -0.06805 -0.06814 -0.0685 -0.06814 -0.06814 -0.06796 -0.06814 -0.06859 -0.06805 -0.06805 -0.06814 -0.0685 -0.06814 -0.06814 -0.06805 -0.0685 -0.06814 -0.06805 -0.06814 -0.06841 -0.06814 -0.06814 -0.06814 -0.0616 -0.06814 -0.06796 -0.06823 -0.06841 -0.06814 -0.06814 -0.06805 -0.0685 -0.06814 -0.06814 -0.06796 -0.0685 -0.06814 -0.06814 v 0.0685 0.06859 0.06841 0.06859 0.0685 0.06841 0.06859 0.0685 0.0685 0.0685 0.0685 0.0685 0.0685 0.0685 0.0685 0.0685 0.06859 0.06841 0.06168 0.0685 0.0685 0.0685 0.0685 0.0685 0.0685 0.0685 0.0685 0.0685 0.0685 0.06859 0.06841 0.06814 0.0685 0.0685 0.0685 0.0685 0.0685 0.0685 0.0685 0.0685 0.0685 0.06859 0.0685 0.0685 0.06841 0.0685 0.0685 0.06859 0.06841 0.06859 0.0685 0.0685 0.06841 0.06859 0.06159 0.06859 0.0685 0.06841 0.06859 0.06841 0.06859 0.0685 0.0685 0.0685 0.06859 0.06841 0.0685 0.06841 0.06859 0.06814 0.0685 0.0685 0.0685 h 0.06814 0.06814 0.0685 0.06796 0.06814 0.06814 0.0685 0.06805 0.06814 0.07495 0.06814 0.06841 0.06814 0.06814 0.06796 0.06859 0.06814 0.06805 0.06814 0.06841 0.06823 0.06805 0.06814 0.0685 0.06805 0.06805 0.06814 0.0685 0.07495 0.06805 0.06814 0.0685 0.06814 0.06814 0.06805 0.0685 0.06814 0.06805 0.06805 0.06814 0.0685 0.06814 0.06814 0.06796 0.06868 0.06805 0.06805 0.06814 0.07531 0.06814 0.06805 0.06814 0.0685 0.06805 0.06814 z m -4.982452,0 h 0.06805 0.06805 v -0.0685 -0.0685 -0.0685 -0.06814 -0.06859 -0.06841 -0.0685 -0.06841 -0.06859 -0.0685 -0.0685 -0.0685 -0.06859 -0.06841 -0.06859 -0.06841 -0.0685 -0.06859 -0.06159 -0.06859 -0.06841 -0.0685 -0.0685 -0.06859 -0.06841 -0.06859 -0.0685 -0.0685 -0.06841 -0.0685 -0.0685 -0.06859 -0.0685 -0.0685 -0.0685 -0.0685 -0.0685 -0.0685 -0.0685 -0.0685 -0.0685 -0.06814 -0.06841 -0.06859 -0.0685 -0.0685 -0.0685 -0.0685 -0.0685 -0.0685 -0.0685 -0.0685 -0.0685 -0.0685 -0.06168 -0.06841 -0.06859 -0.0685 -0.0685 -0.0685 -0.0685 -0.0685 -0.0685 -0.0685 -0.0685 -0.0685 -0.06859 -0.06841 -0.0685 -0.06859 -0.06841 -0.06859 -0.0685 h -0.06805 -0.06805 -0.06169 -0.06814 -0.06805 -0.06814 -0.0616 -0.06814 -0.06805 -0.06814 -0.06168 -0.06814 -0.06796 -0.06814 -0.06169 -0.06805 -0.06814 -0.06814 -0.0616 -0.06814 -0.06805 l -0.03425,0.05487 -0.03389,0.0616 -0.04106,0.05442 -0.03434,0.0616 -0.0338,0.05478 -0.03425,0.06177 -0.0407,0.05433 -0.03425,0.06169 -0.03416,0.05487 -0.03398,0.05478 -0.04097,0.06115 -0.03398,0.05487 -0.03416,0.0616 -0.03425,0.05487 -0.04071,0.06124 -0.03434,0.05478 -0.0338,0.05478 -0.03425,0.06133 -0.03425,0.05469 -0.0407,0.06168 -0.03416,0.05487 -0.03434,0.06115 -0.03389,0.05487 -0.04106,0.06159 -0.0338,0.05442 -0.03425,0.05478 -0.03425,0.06169 -0.0407,0.05487 -0.03425,0.0616 -0.03398,0.05442 -0.03416,0.06169 -0.0407,0.05478 -0.03425,0.06124 -0.03416,0.05487 -0.03389,-0.05487 -0.03425,-0.06124 -0.04115,-0.05478 -0.03389,-0.06169 -0.03416,-0.05442 -0.03389,-0.0616 -0.03425,-0.05487 -0.04106,-0.06169 -0.03389,-0.05478 -0.03425,-0.05442 -0.0338,-0.06159 -0.03425,-0.05487 -0.04106,-0.06115 -0.03398,-0.05487 -0.03425,-0.06168 -0.03371,-0.05469 -0.03434,-0.06133 -0.04106,-0.05478 -0.03389,-0.05478 -0.03425,-0.06124 -0.03425,-0.05487 -0.04071,-0.0616 -0.03425,-0.05487 -0.0338,-0.06115 -0.03434,-0.05478 -0.03416,-0.05487 -0.04079,-0.06169 -0.03425,-0.05433 -0.0338,-0.06177 -0.03425,-0.05478 -0.03434,-0.0616 -0.04061,-0.05442 -0.03425,-0.0616 -0.0338,-0.05487 h -0.06859 -0.06805 -0.06124 -0.06814 -0.0685 -0.06814 -0.06115 -0.06814 -0.0685 -0.06805 -0.06133 -0.06805 -0.06859 -0.06805 -0.06124 -0.0685 -0.06814 -0.06805 -0.06133 -0.0685 -0.06805 v 0.0685 0.06859 0.06841 0.06859 0.0685 0.06841 0.06859 0.0685 0.0685 0.0685 0.0685 0.0685 0.0685 0.0685 0.0685 0.0685 0.06859 0.06841 0.06168 0.0685 0.0685 0.0685 0.0685 0.0685 0.0685 0.0685 0.0685 0.0685 0.0685 0.06859 0.06841 0.06814 0.0685 0.0685 0.0685 0.0685 0.0685 0.0685 0.0685 0.0685 0.0685 0.06859 0.0685 0.0685 0.06841 0.0685 0.0685 0.06859 0.06841 0.06859 0.0685 0.0685 0.06841 0.06859 0.06159 0.06859 0.0685 0.06841 0.06859 0.06841 0.06859 0.0685 0.0685 0.0685 0.06859 0.06841 0.0685 0.06841 0.06859 0.06814 0.0685 0.0685 0.0685 h 0.06805 0.0685 0.06814 0.06814 0.06814 0.06841 0.06814 0.06814 0.06805 0.0685 0.06814 0.06805 0.06814 0.0685 0.06805 0.06814 0.06814 0.06841 0.06814 v -0.0685 -0.0685 -0.0685 -0.0685 -0.06895 -0.0685 -0.0685 -0.06859 -0.06841 -0.0685 -0.06169 -0.06886 -0.06859 -0.06841 -0.06859 -0.06841 -0.06895 -0.0685 -0.0685 -0.0685 -0.0685 -0.06859 -0.06886 -0.0685 -0.0685 -0.0685 -0.0685 -0.0685 -0.06895 -0.06841 -0.06859 -0.06841 -0.06169 -0.06859 -0.06877 -0.06859 -0.0685 -0.0685 -0.0685 -0.06886 -0.06859 -0.0685 -0.0685 l 0.04061,0.05478 0.03443,0.06213 0.04061,0.05469 0.03425,0.06169 0.04106,0.05487 0.03389,0.06159 0.04106,0.05523 0.03389,0.06168 0.04106,0.05478 0.03425,0.06169 0.0407,0.05478 0.03425,0.06213 0.0407,0.05478 0.03425,0.0616 0.04071,0.05478 0.03425,0.06204 0.04115,0.05478 0.04061,0.06169 0.03434,0.05478 0.04062,0.06204 0.03434,0.05478 0.04106,0.06169 0.0338,0.05478 0.04115,0.06213 0.0338,0.05478 0.04115,0.0616 0.03425,0.05487 0.0407,0.06168 0.03416,0.05523 0.04079,0.0616 0.03416,0.05478 0.04079,0.06159 0.03425,0.05532 0.04106,0.06159 h 0.02708 l 0.03416,-0.05478 0.04079,-0.06213 0.03416,-0.05478 0.04115,-0.05478 0.0338,-0.06159 0.04106,-0.05487 0.03389,-0.05523 0.03425,-0.06159 0.04115,-0.05478 0.0338,-0.05478 0.04115,-0.05523 0.0338,-0.06168 0.04106,-0.05478 0.03434,-0.05487 0.0338,-0.06195 0.04115,-0.05487 0.03371,-0.05478 0.04115,-0.0616 0.0338,-0.05487 0.04115,-0.05523 0.03434,-0.0616 0.0338,-0.05478 0.04115,-0.05478 0.0338,-0.06204 0.04106,-0.05487 0.03425,-0.05478 0.0407,-0.05478 0.03425,-0.06204 0.0338,-0.05478 0.04115,-0.05487 0.03425,-0.06159 0.04071,-0.05487 0.03425,-0.05478 0.04079,-0.06213 0.03407,-0.05478 v 0.0685 0.06859 0.06841 0.06895 0.06859 0.06841 0.06859 0.06841 0.06895 0.0685 0.0685 0.0685 0.06841 0.06859 0.06886 0.06859 0.06841 0.06859 0.0685 0.0685 0.06895 0.06841 0.06859 0.06841 0.0685 0.0685 0.06895 0.0685 0.0685 0.0685 0.06859 0.06886 0.0685 0.0685 0.06841 0.06859 0.0685 0.0685 0.06895 0.0685 0.0685 0.0685 0.0685 h 0.06823 0.06805 0.0685 0.07495 0.06814 0.06805 0.0685 0.06814 0.06805 0.07495 0.06814 0.0685 0.06805 0.06823 0.06805 0.07522 z M 19.126,31.592655 l 0.02053,0.06204 0.02744,0.06168 h -0.06814 -0.06841 -0.06814 -0.06814 -0.06805 -0.06814 -0.0685 -0.06805 -0.06124 -0.0685 -0.06823 -0.06805 -0.06805 -0.0685 -0.06814 -0.06805 -0.06814 l 0.02699,-0.06168 0.02053,-0.06204 0.02744,-0.0685 0.02744,-0.06168 0.02008,-0.06204 0.02744,-0.06169 0.02735,-0.0685 0.02708,-0.06204 0.02053,-0.06169 0.02744,-0.0616 0.02735,-0.06204 0.02017,-0.0685 0.02744,-0.06168 0.02735,-0.06204 0.02062,-0.06168 0.02699,-0.0616 0.02744,-0.06886 0.02735,-0.06177 0.02017,-0.0616 0.02744,-0.06204 0.02744,-0.0685 0.02044,-0.06204 0.02699,-0.06169 0.02744,0.06169 0.02053,0.06204 0.02699,0.0685 0.02744,0.06204 0.02053,0.0616 0.02735,0.06177 0.02708,0.06886 0.02044,0.0616 0.02744,0.06168 0.02744,0.06204 0.02008,0.06168 0.02744,0.0685 0.02062,0.06204 0.0269,0.0616 0.02744,0.06169 0.02062,0.06204 0.02735,0.0685 0.02699,0.06169 0.02053,0.06204 0.02744,0.06168 z m 2.093864,2.116726 h 0.06841 0.06805 l -0.02735,-0.06168 -0.02743,-0.06169 -0.0269,-0.06168 -0.02062,-0.06841 -0.02744,-0.06133 -0.02735,-0.06159 -0.02708,-0.06159 -0.02735,-0.06168 -0.02735,-0.06168 -0.02699,-0.0685 -0.02744,-0.06168 -0.02062,-0.06159 -0.02699,-0.06168 -0.02735,-0.0616 -0.02743,-0.06168 -0.02735,-0.0685 -0.02699,-0.06168 -0.02744,-0.06169 -0.02744,-0.06159 -0.02008,-0.06168 -0.02744,-0.06169 -0.02744,-0.0685 -0.02743,-0.06159 -0.02699,-0.06168 -0.02744,-0.0616 -0.02735,-0.06168 -0.02699,-0.06168 -0.02053,-0.0685 -0.02744,-0.0616 -0.02699,-0.06168 -0.02744,-0.06169 -0.02744,-0.0616 -0.02735,-0.06168 -0.02699,-0.0685 -0.02735,-0.0616 -0.02062,-0.06169 -0.0269,-0.06168 -0.02744,-0.0616 -0.02743,-0.06168 -0.02735,-0.0685 -0.02708,-0.06168 -0.02744,-0.06169 -0.02735,-0.06159 -0.02017,-0.0616 -0.02735,-0.06177 -0.02744,-0.06115 -0.02699,-0.06859 -0.02744,-0.0616 -0.02744,-0.06168 -0.02735,-0.06168 -0.02699,-0.0616 -0.02062,-0.06169 -0.02735,-0.0685 -0.02699,-0.0616 -0.02744,-0.06168 -0.02735,-0.06169 -0.02744,-0.0616 -0.02708,-0.06168 -0.02735,-0.0685 -0.02053,-0.06159 -0.02699,-0.06169 -0.02744,-0.06168 -0.02735,-0.06168 -0.02699,-0.06159 -0.02744,-0.0685 -0.02744,-0.06168 -0.02735,-0.0616 -0.02017,-0.06168 -0.02744,-0.0616 -0.02744,-0.06177 -0.0269,-0.06841 -0.02744,-0.06168 -0.02735,-0.06169 -0.02744,-0.0616 -0.02699,-0.06168 -0.02053,-0.0616 -0.02744,-0.06859 -0.02699,-0.0616 -0.02744,-0.06168 -0.02735,-0.06168 h -0.06814 -0.06124 -0.06859 -0.06805 -0.06805 -0.06133 -0.06841 -0.06814 -0.06805 -0.06124 -0.06859 -0.06814 -0.06805 -0.06124 -0.0685 -0.06814 -0.06805 -0.06169 -0.06805 l -0.02699,0.06168 -0.02744,0.06168 -0.02735,0.0616 -0.02062,0.06859 -0.02699,0.0616 -0.02735,0.06168 -0.02744,0.0616 -0.02699,0.06169 -0.02743,0.06168 -0.02744,0.06841 -0.02744,0.06177 -0.02008,0.0616 -0.02744,0.06168 -0.02744,0.0616 -0.02699,0.06168 -0.02744,0.0685 -0.02735,0.06159 -0.02699,0.06168 -0.02735,0.06168 -0.02062,0.06169 -0.02735,0.06159 -0.02699,0.0685 -0.02744,0.06168 -0.02735,0.0616 -0.02708,0.06169 -0.02735,0.06168 -0.02744,0.0616 -0.02053,0.0685 -0.02699,0.06169 -0.02744,0.0616 -0.02735,0.06168 -0.02708,0.06168 -0.02735,0.0616 -0.02734,0.06859 -0.02708,0.06115 -0.02053,0.06177 -0.02744,0.0616 -0.02735,0.06159 -0.02699,0.06169 -0.02744,0.06168 -0.02744,0.0685 -0.02699,0.06168 -0.02744,0.0616 -0.02053,0.06168 -0.02735,0.06169 -0.02708,0.0616 -0.02735,0.0685 -0.02735,0.06168 -0.02708,0.0616 -0.02735,0.06169 -0.02744,0.06168 -0.02053,0.0616 -0.02699,0.0685 -0.02744,0.06168 -0.02743,0.06168 -0.0269,0.0616 -0.02744,0.06168 -0.02743,0.06159 -0.02699,0.0685 -0.02053,0.06169 -0.02744,0.06168 -0.02735,0.06159 -0.02708,0.06169 -0.02735,0.06168 -0.02744,0.0685 -0.02699,0.06168 -0.02744,0.0616 -0.02044,0.06168 -0.02744,0.06159 -0.02699,0.06168 -0.02743,0.0685 -0.02744,0.06168 -0.02699,0.06168 -0.02735,0.06159 -0.02744,0.06159 -0.02053,0.06133 -0.02708,0.06841 -0.02735,0.06168 -0.02744,0.06169 -0.02699,0.06168 h 0.06814 0.06814 0.06805 0.06859 0.07495 0.06805 0.06796 0.06859 0.06814 0.06805 0.06814 0.06841 0.06814 0.06814 0.07495 0.06805 0.06859 0.06805 0.06805 0.06814 l 0.02744,-0.06168 0.02053,-0.06169 0.02735,-0.06168 0.02708,-0.06841 0.02053,-0.06133 0.02744,-0.06159 0.02699,-0.06159 0.02053,-0.06168 0.02744,-0.06168 0.02735,-0.06168 0.02017,-0.0616 0.02735,-0.0685 0.02744,-0.06168 0.02053,-0.0616 0.02699,-0.06168 h 0.06805 0.06859 0.06814 0.06796 0.06177 0.06805 0.06814 0.06805 0.06814 0.0685 0.06805 0.06805 0.06823 0.0685 0.06124 0.06805 0.0685 0.06814 0.06805 0.06814 0.06814 0.06841 0.06814 0.06814 0.0616 0.06814 0.06805 0.06805 0.06814 l 0.02744,0.06168 0.02053,0.0616 0.02744,0.06168 0.02708,0.0685 0.02044,0.0616 0.02744,0.06168 0.02735,0.06168 0.02017,0.06168 0.02744,0.06159 0.02735,0.06159 0.02017,0.06133 0.02744,0.06841 0.02735,0.06168 0.02053,0.06169 0.02708,0.06168 h 0.0685 0.06805 0.06124 0.06814 0.06841 0.06823 0.06805 0.06124 0.0685 0.06814 0.06805 0.06814 0.0685 0.06124 0.06814 0.06805 0.06859 0.06796 z m -5.960976,-0.595685 0.05478,-0.04106 0.04752,-0.04106 v -0.0685 -0.0685 -0.06841 -0.06177 -0.06841 -0.0685 -0.06859 -0.0685 -0.0685 -0.06159 -0.0685 -0.0685 -0.0685 -0.0685 -0.06859 -0.0685 -0.0616 -0.06859 -0.06841 -0.06859 -0.06841 -0.06859 -0.0685 -0.0616 -0.0685 -0.06859 -0.0685 -0.0685 -0.0685 -0.06159 -0.06859 -0.06841 -0.06814 h -0.06814 -0.06805 -0.0685 -0.06805 -0.06814 -0.06805 -0.06859 -0.06805 -0.06814 -0.06814 -0.06841 -0.06814 -0.06805 -0.06814 -0.0685 -0.06805 -0.06805 -0.06823 -0.0685 -0.06805 -0.06814 -0.06805 -0.0685 -0.06814 -0.06805 -0.06814 -0.0685 -0.06805 -0.06814 -0.06805 -0.06814 -0.0685 -0.06814 v 0.06814 0.0616 0.06859 0.06841 0.0685 0.06177 0.06841 0.06859 0.06841 0.06169 0.0685 0.0685 0.06859 0.0616 0.0685 h 0.06814 0.0616 0.06814 0.06814 0.06814 0.0616 0.06805 0.06805 0.06823 0.0616 0.06814 0.06805 0.06814 0.0616 0.06814 v 0.0685 0.0685 0.0685 0.0685 0.0754 0.0685 0.0685 0.0685 0.06841 l -0.05442,0.03434 -0.04797,0.02734 -0.06115,0.02744 -0.05478,0.02744 -0.06142,0.02734 -0.06115,0.01372 -0.06814,0.02053 -0.0685,0.01363 -0.06805,0.01381 -0.06814,0.0068 -0.07495,0.0068 -0.0754,0.0069 h -0.08177 -0.07495 l -0.07495,-0.0069 -0.06805,-0.0068 -0.06814,-0.01363 -0.0685,-0.01372 -0.06805,-0.02062 -0.06823,-0.02053 -0.06151,-0.02734 -0.06124,-0.02744 -0.06133,-0.02744 -0.05478,-0.03425 -0.05433,-0.03425 -0.05442,-0.04106 -0.05487,-0.04115 -0.04743,-0.04106 -0.04124,-0.04788 -0.04752,-0.04806 -0.04106,-0.04788 -0.0407,-0.05487 -0.03425,-0.05478 -0.03425,-0.05478 -0.03389,-0.06169 -0.02735,-0.06168 -0.02743,-0.0685 -0.02017,-0.05478 -0.02053,-0.06169 -0.01363,-0.0616 -0.01381,-0.06168 -0.01363,-0.0616 -0.0069,-0.0685 -0.0068,-0.06169 -0.0064,-0.0685 v -0.0685 -0.01372 -0.0754 l 0.0064,-0.0685 0.0068,-0.06841 0.01372,-0.0754 0.01372,-0.06159 0.01363,-0.06814 0.02062,-0.0685 0.02699,-0.06169 0.02062,-0.0616 0.02734,-0.06168 0.03425,-0.05478 0.0338,-0.06168 0.03425,-0.05478 0.03389,-0.04797 0.04115,-0.05478 0.04752,-0.04797 0.04106,-0.04797 0.04752,-0.04106 0.04806,-0.04115 0.04752,-0.04097 0.05487,-0.03434 0.05433,-0.03434 0.05478,-0.03425 0.06124,-0.02735 0.06133,-0.02744 0.06115,-0.02053 0.06168,-0.02044 0.06124,-0.01381 0.06814,-0.01363 0.06159,-0.0069 0.06814,-0.0068 h 0.06805 0.07495 l 0.07531,0.0068 0.07495,0.0069 0.06823,0.0068 0.06805,0.01363 0.06805,0.01381 0.06169,0.01363 0.06124,0.02053 0.06124,0.02062 0.05478,0.02053 0.05442,0.02744 0.05478,0.02735 0.06124,0.03434 0.05442,0.03416 0.05478,0.03425 0.05442,0.03425 0.05442,0.04106 0.05478,0.03434 0.05442,0.04788 0.05478,0.04115 0.0407,-0.05478 0.04788,-0.04797 0.04079,-0.05478 0.04797,-0.05478 0.04062,-0.05478 0.04115,-0.04806 0.04761,-0.05478 0.04097,-0.05478 0.04761,-0.05478 0.04115,-0.04806 0.04061,-0.05478 0.04797,-0.05478 0.04071,-0.04788 0.04115,-0.05487 0.04752,-0.05478 0.04115,-0.05478 0.04752,-0.04797 0.04106,-0.05478 -0.05442,-0.04115 -0.05478,-0.04788 -0.05433,-0.04115 -0.05487,-0.04106 -0.05433,-0.03434 -0.05442,-0.04106 -0.06169,-0.03425 -0.05442,-0.03425 -0.06115,-0.03425 -0.05487,-0.03425 -0.06124,-0.02744 -0.06124,-0.03416 -0.06168,-0.02743 -0.06124,-0.02744 -0.06124,-0.02735 -0.06168,-0.02062 -0.05442,-0.02053 -0.06115,-0.01363 -0.06168,-0.02062 -0.06133,-0.01372 -0.06124,-0.01372 -0.0616,-0.01363 -0.06814,-0.01372 -0.06805,-0.01372 -0.06168,-0.0068 -0.07495,-0.01372 -0.06805,-0.0068 h -0.06814 l -0.07495,-0.0069 -0.0754,-0.0069 h -0.07495 -0.07486 -0.06814 -0.07495 l -0.0685,0.0069 -0.06814,0.0069 -0.06805,0.0068 -0.06814,0.0068 -0.06841,0.01372 -0.06823,0.0069 -0.06805,0.01363 -0.06124,0.02053 -0.0685,0.01372 -0.06124,0.02053 -0.06115,0.01381 -0.06177,0.02735 -0.06805,0.02062 -0.05442,0.02044 -0.06814,0.03434 -0.0616,0.02735 -0.06133,0.02744 -0.06115,0.03425 -0.06168,0.03425 -0.06124,0.03425 -0.05433,0.03425 -0.05487,0.03425 -0.05442,0.04106 -0.05478,0.03425 -0.05442,0.04115 -0.04761,0.04106 -0.05476,0.04797 -0.04753,0.04106 -0.0479,0.04806 -0.04761,0.04779 -0.04111,0.04806 -0.04753,0.04788 -0.04111,0.04806 -0.04072,0.05478 -0.04111,0.05478 -0.04065,0.05478 -0.0343,0.05478 -0.03416,0.05478 -0.03392,0.05487 -0.03423,0.05478 -0.03423,0.06168 -0.02698,0.06169 -0.02743,0.06159 -0.02736,0.06169 -0.02705,0.0616 -0.02743,0.0685 -0.02056,0.06168 -0.02056,0.0685 -0.02009,0.06168 -0.01375,0.0685 -0.02055,0.0685 -0.01368,0.0616 -0.0068,0.06859 -0.01368,0.06805 -0.0069,0.07531 -0.0064,0.06859 v 0.06841 l -0.0068,0.0754 v 0.0685 0.01372 0.0685 0.07531 l 0.0068,0.0685 0.0064,0.06859 0.0069,0.0685 0.0067,0.0616 0.01375,0.0685 0.0069,0.06169 0.01368,0.0685 0.02055,0.06169 0.01368,0.0685 0.02016,0.0616 0.01368,0.0616 0.02743,0.06177 0.02055,0.05478 0.02705,0.06159 0.02736,0.06168 0.02743,0.06159 0.02698,0.06169 0.03423,0.05478 0.03423,0.06168 0.03392,0.05487 0.03416,0.05469 0.04072,0.05487 0.03423,0.05478 0.04111,0.04797 0.04072,0.05478 0.04111,0.04797 0.04753,0.04797 0.04799,0.04797 0.04753,0.04106 0.04798,0.04797 0.04753,0.04106 0.04789,0.04115 0.05451,0.04106 0.05442,0.04106 0.05478,0.04115 0.05433,0.03416 0.05487,0.03434 0.06124,0.03425 0.05433,0.03389 0.06177,0.03425 0.06115,0.02743 0.06133,0.02735 0.06159,0.02734 0.06805,0.02744 0.06124,0.02053 0.06133,0.02735 0.06168,0.02062 0.06805,0.01372 0.06124,0.02053 0.0685,0.01372 0.06124,0.01363 0.06814,0.01381 0.06805,0.01363 0.06859,0.0069 0.06805,0.0069 0.06805,0.0068 0.07495,0.0068 0.06814,0.0068 h 0.0685 0.07486 0.07504 0.07495 l 0.07487,-0.0068 0.06859,-0.0068 0.07495,-0.0068 0.06805,-0.0069 0.07495,-0.0069 0.06814,-0.0068 0.0685,-0.01372 0.06805,-0.01363 0.06132,-0.01372 0.0685,-0.01372 0.06124,-0.02062 0.06805,-0.02044 0.06133,-0.02062 0.0616,-0.02053 0.06133,-0.02062 0.06115,-0.02744 0.06859,-0.02734 0.06124,-0.02744 0.06805,-0.02735 0.06124,-0.03425 0.06159,-0.02699 0.06133,-0.03425 0.06124,-0.03434 0.06169,-0.03416 0.05442,-0.03425 0.05478,-0.03425 0.05442,-0.04115 0.05433,-0.03416 0.05478,-0.04115 z m 1.273138,6.507797 h 14.368887 l -7.334171,2.418604 z"
     fill="#000000"
     id="path2"
     style="stroke-width:0.896576" />
</svg>
