<?xml version="1.0" encoding="UTF-8" standalone="no"?>
<svg
   xmlns:dc="http://purl.org/dc/elements/1.1/"
   xmlns:cc="http://creativecommons.org/ns#"
   xmlns:rdf="http://www.w3.org/1999/02/22-rdf-syntax-ns#"
   xmlns:svg="http://www.w3.org/2000/svg"
   xmlns="http://www.w3.org/2000/svg"
   xmlns:sodipodi="http://sodipodi.sourceforge.net/DTD/sodipodi-0.dtd"
   xmlns:inkscape="http://www.inkscape.org/namespaces/inkscape"
   viewBox="0 0 245.86344 233.9614"
   height="233.96141"
   width="245.86343"
   xml:space="preserve"
   id="svg2"
   version="1.1"
   sodipodi:docname="gog.svg"
   inkscape:version="0.92.5 (2060ec1f9f, 2020-04-08)"><sodipodi:namedview
     pagecolor="#ffffff"
     bordercolor="#666666"
     borderopacity="1"
     objecttolerance="10"
     gridtolerance="10"
     guidetolerance="10"
     inkscape:pageopacity="0"
     inkscape:pageshadow="2"
     inkscape:window-width="1553"
     inkscape:window-height="883"
     id="namedview38"
     showgrid="false"
     fit-margin-top="0"
     fit-margin-left="0"
     fit-margin-right="0"
     fit-margin-bottom="0"
     inkscape:zoom="1.5733333"
     inkscape:cx="142.51872"
     inkscape:cy="41.276204"
     inkscape:window-x="2584"
     inkscape:window-y="329"
     inkscape:window-maximized="0"
     inkscape:current-layer="svg2" /><metadata
     id="metadata8"><rdf:RDF><cc:Work
         rdf:about=""><dc:format>image/svg+xml</dc:format><dc:type
           rdf:resource="http://purl.org/dc/dcmitype/StillImage" /><dc:title /></cc:Work></rdf:RDF></metadata><defs
     id="defs6"><clipPath
       id="clipPath20"
       clipPathUnits="userSpaceOnUse"><path
         id="path18"
         d="M 0,226.772 H 340.157 V 0 H 0 Z"
         inkscape:connector-curvature="0" /></clipPath></defs><rect
     style="opacity:0.34299999;fill:#ffffff;fill-opacity:1;stroke:none;stroke-width:1.01669288;stroke-miterlimit:4;stroke-dasharray:none"
     id="rect827"
     width="239.61868"
     height="227.54234"
     x="3.1779683"
     y="3.2410724"
     rx="15.082881"
     ry="13.98305" /><g
     id="g50"
     transform="matrix(4.3485635,0,0,-4.3485635,73.258073,150.19981)"><path
       inkscape:connector-curvature="0"
       d="m 0,0 h -6.566 -0.011 c -0.516,0 -0.93,-0.419 -0.93,-0.935 0,0 0.002,0 0.002,-0.006 h -0.002 v -4.693 h 0.002 l -0.002,-0.004 c 0,-0.514 0.414,-0.937 0.93,-0.937 h 0.011 0.68 H 0 v -3.131 h -8.207 v 0.008 c -1.343,0 -2.429,1.086 -2.429,2.425 v 7.98 c 0,1.332 1.086,2.418 2.429,2.418 H 0 Z"
       style="fill:#333333;fill-opacity:1;fill-rule:evenodd;stroke:none"
       id="path52" /></g><g
     id="g54"
     transform="matrix(4.3485635,0,0,-4.3485635,83.583737,112.30382)"><path
       inkscape:connector-curvature="0"
       d="M 0,0 C 0,-1.365 -1.103,-2.463 -2.462,-2.463 H -13.018 V 0.71 h 8.89 0.01 c 0.524,0 0.944,0.428 0.944,0.949 v 0.006 10.475 0.007 c 0,0.523 -0.42,0.947 -0.944,0.947 h -0.01 -4.763 -0.01 c -0.523,0 -0.944,-0.424 -0.944,-0.947 V 12.14 7.38 7.374 c 0,-0.524 0.421,-0.949 0.944,-0.949 h 0.01 3.811 V 3.252 h -5.477 c -1.362,0 -2.461,1.1 -2.461,2.461 v 8.094 c 0,1.36 1.099,2.462 2.461,2.462 h 8.095 C -1.103,16.269 0,15.167 0,13.807 Z"
       style="fill:#333333;fill-opacity:1;fill-rule:evenodd;stroke:none"
       id="path56" /></g><g
     id="g58"
     transform="matrix(4.3485635,0,0,-4.3485635,218.84711,192.37218)"><path
       inkscape:connector-curvature="0"
       d="m 0,0 h -3.128 v 9.698 h -2.188 -0.01 c -0.517,0 -0.931,-0.419 -0.931,-0.935 V 8.757 0 h -3.128 v 9.698 h -2.193 -0.006 c -0.518,0 -0.932,-0.419 -0.932,-0.935 V 8.757 -0.008 h -3.127 v 10.413 c 0,1.332 1.083,2.418 2.426,2.418 H 0 Z"
       style="fill:#333333;fill-opacity:1;fill-rule:evenodd;stroke:none"
       id="path60" /></g><g
     id="g62"
     transform="matrix(4.3485635,0,0,-4.3485635,218.88538,112.30382)"><path
       inkscape:connector-curvature="0"
       d="M 0,0 C 0,-1.365 -1.104,-2.463 -2.461,-2.463 H -13.018 V 0.71 h 8.894 0.006 c 0.526,0 0.948,0.428 0.948,0.949 v 0.006 10.475 0.007 c 0,0.523 -0.422,0.947 -0.948,0.947 H -4.124 -8.891 -8.9 c -0.518,0 -0.941,-0.424 -0.941,-0.947 V 12.14 7.38 7.374 c 0,-0.524 0.423,-0.949 0.941,-0.949 h 0.009 3.81 V 3.252 h -5.474 c -1.362,0 -2.463,1.1 -2.463,2.461 v 8.094 c 0,1.36 1.101,2.462 2.463,2.462 h 8.094 C -1.104,16.269 0,15.167 0,13.807 Z"
       style="fill:#333333;fill-opacity:1;fill-rule:evenodd;stroke:none"
       id="path64" /></g><g
     id="g66"
     transform="matrix(4.3485635,0,0,-4.3485635,137.402,59.514002)"><path
       inkscape:connector-curvature="0"
       d="m 0,0 v -4.759 -0.006 c 0,-0.524 -0.411,-0.95 -0.936,-0.95 H -0.947 -5.71 -5.717 c -0.525,0 -0.945,0.426 -0.945,0.95 V -4.759 0 0.008 c 0,0.523 0.42,0.946 0.945,0.946 h 0.007 4.763 0.011 C -0.411,0.954 0,0.531 0,0.008 Z m 0.721,4.129 h -8.098 c -1.36,0 -2.459,-1.102 -2.459,-2.462 v -8.094 c 0,-1.36 1.099,-2.461 2.459,-2.461 h 8.098 c 1.356,0 2.46,1.101 2.46,2.461 v 8.094 c 0,1.36 -1.104,2.462 -2.46,2.462"
       style="fill:#333333;fill-opacity:1;fill-rule:evenodd;stroke:none"
       id="path68" /></g><g
     id="g70"
     transform="matrix(4.3485635,0,0,-4.3485635,126.32794,154.29007)"><path
       inkscape:connector-curvature="0"
       d="m 0,0 v -4.693 c 0,-0.516 -0.414,-0.937 -0.928,-0.937 -0.005,0 -0.006,0.005 -0.011,0.005 V -5.63 h -4.692 v 0.005 c 0,0 -0.005,-0.005 -0.01,-0.005 -0.516,0 -0.93,0.421 -0.93,0.937 V 0 0.006 c 0,0.516 0.414,0.935 0.93,0.935 h 0.01 4.692 0.011 C -0.414,0.941 0,0.522 0,0.006 Z M 0.703,4.066 H -7.273 C -8.616,4.066 -9.7,2.98 -9.7,1.648 v -7.98 c 0,-1.339 1.084,-2.425 2.427,-2.425 h 7.976 c 1.338,0 2.424,1.086 2.424,2.425 v 7.98 c 0,1.332 -1.086,2.418 -2.424,2.418"
       style="fill:#333333;fill-opacity:1;fill-rule:evenodd;stroke:none"
       id="path72" /></g><g
     id="g74"
     transform="matrix(4.3485635,0,0,-4.3485635,240.63646,216.07577)"><path
       inkscape:connector-curvature="0"
       d="M 0,0 C 0,-0.806 -0.325,-1.53 -0.853,-2.059 -1.381,-2.586 -2.106,-2.91 -2.91,-2.91 h -48.315 c -0.805,0 -1.529,0.324 -2.057,0.851 -0.528,0.529 -0.851,1.253 -0.853,2.059 v 45.578 c 0.002,0.805 0.325,1.528 0.853,2.057 0.528,0.527 1.252,0.851 2.057,0.852 H -2.91 c 0.804,-0.001 1.529,-0.325 2.057,-0.852 C -0.325,47.106 0,46.383 0,45.578 Z m -0.004,48.485 c -0.742,0.744 -1.772,1.204 -2.906,1.204 h -48.315 c -1.134,0 -2.164,-0.46 -2.906,-1.204 -0.744,-0.742 -1.206,-1.774 -1.206,-2.907 V 0 c 0,-1.134 0.462,-2.166 1.206,-2.908 0.742,-0.743 1.772,-1.205 2.906,-1.205 H -2.91 c 1.134,0 2.164,0.462 2.906,1.205 C 0.74,-2.166 1.202,-1.134 1.202,0 v 45.578 c 0,1.133 -0.462,2.165 -1.206,2.907"
       style="fill:#333333;fill-opacity:1;fill-rule:nonzero;stroke:none"
       id="path76" /></g></svg>