<?xml version="1.0" encoding="UTF-8" standalone="no"?>
<svg
   width="512"
   height="512"
   version="1.1"
   id="svg6"
   sodipodi:docname="Ubisoft_logo.svg"
   inkscape:version="1.1.1 (3bf5ae0d25, 2021-09-20)"
   xmlns:inkscape="http://www.inkscape.org/namespaces/inkscape"
   xmlns:sodipodi="http://sodipodi.sourceforge.net/DTD/sodipodi-0.dtd"
   xmlns="http://www.w3.org/2000/svg"
   xmlns:svg="http://www.w3.org/2000/svg">
  <defs
     id="defs10" />
  <sodipodi:namedview
     id="namedview8"
     pagecolor="#ffffff"
     bordercolor="#666666"
     borderopacity="1.0"
     inkscape:pageshadow="2"
     inkscape:pageopacity="0.0"
     inkscape:pagecheckerboard="0"
     showgrid="false"
     width="512px"
     inkscape:zoom="0.95436332"
     inkscape:cx="146.17075"
     inkscape:cy="398.69512"
     inkscape:window-width="2243"
     inkscape:window-height="1378"
     inkscape:window-x="1631"
     inkscape:window-y="40"
     inkscape:window-maximized="0"
     inkscape:current-layer="svg6" />
  <path
     d="M 240.37637,6.0419709 C 85.577986,6.0419709 18.761027,143.82884 18.761027,143.82884 l 19.668119,14.0802 c 0,0 -24.750764,47.068 -24.065842,107.43921 0,123.24107 98.103306,239.33499 242.519316,239.33499 131.19665,0 239.57304,-106.78572 239.57304,-239.03183 0,-172.479112 -133.75219,-259.6094391 -256.07854,-259.6094391 z m 1.3429,42.0444871 c 120.94377,0 214.79308,97.461052 214.79308,210.763632 0,120.1084 -90.33487,203.63671 -195.60104,203.63671 -77.4733,0 -147.36155,-58.99762 -147.36155,-139.88805 0,-46.71992 24.83235,-79.29227 52.65891,-96.65187 l 4.0721,4.41869 c -7.61499,5.95845 -29.32889,40.83857 -29.32889,75.12136 0,63.64311 49.90874,107.72066 112.78983,107.72066 80.09921,0 133.5194,-68.3178 133.5194,-147.64226 0,-92.29307 -81.46681,-170.647416 -179.50649,-170.647416 -54.22637,0 -100.25014,23.320286 -126.69637,43.907626 l -4.115521,-3.72553 C 111.5414,81.753187 171.45749,48.086458 241.71927,48.086458 Z m -36.08754,88.291322 c 62.56371,0 123.64529,41.38951 138.89173,100.13936 l -5.54525,2.10118 c -27.37517,-36.15042 -72.23196,-66.10958 -125.20226,-66.10958 -97.47004,0 -148.658794,88.57053 -141.144113,162.54512 l -5.739872,2.10192 c 0,0 -10.765629,-23.75445 -10.765629,-51.92234 0,-81.56935 66.986134,-148.8564 149.505394,-148.8564 z m 41.35134,102.37004 c 29.62007,0 53.30865,24.0082 53.30865,52.5077 0,23.58378 -15.14165,37.56068 -15.14165,37.56068 l 17.93523,12.54119 c 0,0 -17.78477,27.92161 -54.08789,27.92161 -34.72593,0 -65.43813,-28.02866 -65.43813,-65.72033 0,-38.83771 33.40698,-64.81085 63.42453,-64.81085 z"
     id="path2"
     style="fill:#000000;fill-opacity:1;stroke:none;stroke-width:0.748549"
     sodipodi:nodetypes="scccssssssssccssssccscccsccscccsccsscc" />
</svg>
